<?xml version="1.0" standalone="no"?><!DOCTYPE svg PUBLIC "-//W3C//DTD SVG 1.1//EN" "http://www.w3.org/Graphics/SVG/1.1/DTD/svg11.dtd"><svg t="1694593839338" class="icon" viewBox="0 0 1024 1024" version="1.1" xmlns="http://www.w3.org/2000/svg" p-id="4553" xmlns:xlink="http://www.w3.org/1999/xlink" width="200" height="200"><path d="M946.21184 200.94464h-72.23808V124.61568l-24.56064-11.8272c-4.91008-2.36032-121.71776-58.04032-223.90272-58.04032-47.8464 0-86.11328 12.09344-114.36032 36.05504-28.2624-23.9616-66.50368-36.05504-114.37056-36.05504-102.17472 0-218.98752 55.68-223.90784 58.04032l-24.52992 11.8272v76.32896H77.79328c-16.01024 0-28.99968 15.93344-28.99968 35.57376v665.71776c0 19.64544 12.98944 35.57376 28.99968 35.57376h868.40832c16.01024 0 28.99968-15.92832 28.99968-35.57376V236.5184c0.01024-19.64032-12.9792-35.57376-28.98944-35.57376z m-110.90944-54.22592v530.432c-59.89888-25.15456-218.98752-82.18624-304.82944-20.70016V122.27072c24.21248-22.17984 58.28096-30.31552 95.03744-30.31552 96.0256 0 209.792 54.76352 209.792 54.76352z m-7.97696 562.84672h-301.04576c49.75616-57.89696 213.888-30.04928 295.92576 0h5.12zM396.76928 91.9552c36.75648 0 70.8352 8.15104 95.04256 30.31552v534.17984c-85.8624-61.46048-244.92544-4.4544-304.82432 20.70016v-530.432S300.73344 91.9552 396.76928 91.9552z m99.21536 617.61024H200.00768c82.01728-30.08512 246.21056-57.97376 295.97696 0z m436.56704 172.44672H91.43296V241.39776H148.3264v505.37472h725.632V241.39776h58.58816v645.7344-5.12z" p-id="4554" fill="#ffffff"></path><path d="M240.1792 205.77792c24.76544-10.84928 95.60576-39.296 157.25568-39.296 28.69248 0 55.31648 6.29248 74.46016 23.25504v-28.17024c-20.1472-11.4944-44.96896-17.3568-74.46016-17.3568-81.02912 0-173.68064 44.16-177.58208 46.03392l-19.456 9.37984v25.9328l39.7824-19.77856zM240.1792 336.9984c24.76544-10.84928 95.60576-39.296 157.25568-39.296 28.69248 0 55.31648 6.29248 74.46016 23.25504v-28.17024c-20.1472-11.4944-44.96896-17.3568-74.46016-17.3568-81.02912 0-173.68064 44.16-177.58208 46.03392l-19.456 9.37984v25.9328l39.7824-19.77856zM240.1792 468.224c24.76544-10.84928 95.60576-39.296 157.25568-39.296 28.69248 0 55.31648 6.29248 74.46016 23.25504v-28.17024c-20.1472-11.4944-44.96896-17.3568-74.46016-17.3568-81.02912 0-173.68064 44.16-177.58208 46.03392l-19.456 9.37984v25.9328l39.7824-19.77856zM240.1792 599.44448c24.76544-10.84928 95.60576-39.296 157.25568-39.296 28.69248 0 55.31648 6.29248 74.46016 23.24992v-28.17024c-20.1472-11.48928-44.96896-17.35168-74.46016-17.35168-81.02912 0-173.68064 44.14976-177.58208 46.02368l-19.456 9.37984v25.9328l39.7824-19.76832zM775.97184 205.77792c-24.77568-10.84928-95.616-39.296-157.26592-39.296-28.69248 0-55.31648 6.29248-74.46016 23.25504v-28.17024c20.15744-11.4944 44.96896-17.3568 74.46016-17.3568 81.02912 0 173.68576 44.16 177.5872 46.03392l19.46112 9.37984v25.9328l-39.7824-19.77856zM775.97184 336.9984c-24.77568-10.84928-95.616-39.296-157.26592-39.296-28.69248 0-55.31136 6.29248-74.46016 23.25504v-28.17024c20.15744-11.4944 44.96896-17.3568 74.46016-17.3568 81.02912 0 173.68576 44.15488 177.5872 46.0288l19.46112 9.37984v25.9328l-39.7824-19.77344zM775.97184 468.224c-24.77568-10.84928-95.616-39.296-157.26592-39.296-28.69248 0-55.31648 6.29248-74.46016 23.25504v-28.17024c20.15744-11.4944 44.96896-17.3568 74.46016-17.3568 81.02912 0 173.68576 44.16 177.5872 46.03392l19.46112 9.37984v25.9328l-39.7824-19.77856zM775.97184 599.44448c-24.77568-10.84928-95.616-39.296-157.26592-39.296-28.69248 0-55.31136 6.29248-74.46016 23.24992v-28.17024c20.15744-11.48928 44.96896-17.35168 74.46016-17.35168 81.02912 0 173.68576 44.14976 177.5872 46.02368l19.46112 9.37984v25.9328l-39.7824-19.76832z" p-id="4555" fill="#ffffff"></path></svg>