<?xml version="1.0" standalone="no"?><!DOCTYPE svg PUBLIC "-//W3C//DTD SVG 1.1//EN" "http://www.w3.org/Graphics/SVG/1.1/DTD/svg11.dtd"><svg t="1694593820152" class="icon" viewBox="0 0 1024 1024" version="1.1" xmlns="http://www.w3.org/2000/svg" p-id="4297" xmlns:xlink="http://www.w3.org/1999/xlink" width="200" height="200"><path d="M572.583 236.186L785.37 449.72s-2.948 2.973-2.948 5.93c-82.761 94.91-127.094 186.842-141.856 290.628-209.84 2.976-351.716 32.64-455.163 91.962 59.114-106.78 88.656-249.119 97.525-459.686C418.9 360.75 510.523 289.567 572.583 236.186m62.07-169.039c-5.922 0-14.78 2.957-20.693 8.888-11.834 11.871-11.834 26.69 0 38.553l295.558 296.576c5.913 5.932 11.804 8.889 17.727 8.889 5.92 0 14.78-2.975 20.684-8.889 11.832-11.87 11.832-26.69 0-38.56l-295.54-296.57c-5.938-5.93-11.823-8.887-17.736-8.887z m-53.21 103.795c-14.792 0-32.519 8.897-47.28 20.75-82.764 71.184-171.438 124.555-292.602 133.47-8.859 0-14.771 5.923-17.737 14.828C217.921 624.698 173.588 784.84 73.1 891.6c0 0 0 2.975-2.956 2.975v8.897h-2.946l8.859 23.732 20.692 20.76s8.869 2.957 23.64 8.888v-2.965h8.879s2.947 0 2.947-2.975C235.67 850.081 392.316 808.564 670.119 802.623c14.79 0 26.605-11.863 26.605-26.68 8.86-115.667 62.06-204.636 132.99-284.697 14.78-23.725 29.55-53.39 11.814-68.218-215.754-219.444-242.35-246.144-242.35-246.144-2.945-5.942-8.858-5.942-17.736-5.942zM362.732 689.93c-8.858 0-14.76-2.956-20.673-8.887-11.815-11.862-11.815-29.647 0-41.519l236.444-237.246c11.816-11.854 29.544-11.854 41.368 0 11.825 11.862 11.825 29.665 0 41.518L383.437 681.043c-5.922 5.931-11.834 8.887-20.703 8.887z" fill="#ffffff" p-id="4298"></path></svg>